<svg id="system" width="900" height="800" version="1.1" viewBox="0 0 238.13 211.67" xmlns="http://www.w3.org/2000/svg">
 <rect id="rect72181" y="-.00055556" width="206.82" height="46.339" fill="#5b717e" style="paint-order:markers stroke fill"/>
 <g id="GreenHydElecPumpOffSwitchButton" transform="matrix(.98773 0 0 .98773 -64.071 -190.62)">
  <path id="rect32533" x="77.127907" y="223.12306" width="11.86979" height="11.86979" d="m77.657 223.12h10.811a.52917.52917 45 01.52917.52917v10.811a.52917.52917 135 01-.52917.52916h-10.811a.52917.52917 45 01-.52917-.52916v-10.811a.52917.52917 135 01.52917-.52917z" fill="#333" stroke="#666" stroke-linecap="square" stroke-width=".52917" style="paint-order:markers stroke fill"/>
  <g id="GreenHydElecPumpOffSwitchStatus" transform="translate(18.291 -27.745)">
   <path id="rect29846" x="60.676998" y="257.50235" width="8.2260761" height="3.486815" d="m60.942 257.5h7.6969a.26458.26458 45 01.26458.26458v2.9576a.26458.26458 135 01-.26458.26458h-7.6969a.26458.26458 45 01-.26458-.26458v-2.9576a.26458.26458 135 01.26458-.26458z" fill="none" stroke="#b5b098" stroke-linecap="square" stroke-width=".26458" style="paint-order:markers stroke fill"/>
   <text id="text31644" x="64.715019" y="260.50082" fill="#b5b098" font-family="sans-serif" font-size="3.4525px" stroke-width=".086313" style="-moz-user-select:none;-ms-user-select:none;-webkit-user-select:none;line-height:1.25" xml:space="preserve"><tspan id="tspan31642" x="64.715019" y="260.50082" fill="#b5b098" stroke-width=".086313" text-align="center" text-anchor="middle">OFF</tspan></text>
  </g>
  <text id="GreenHydElecPumpOffSwitchFault" x="83.006317" y="227.88412" fill="#eba03b" font-family="sans-serif" font-size="3.4525px" stroke-width=".086313" style="-moz-user-select:none;-ms-user-select:none;-webkit-user-select:none;line-height:1.25" xml:space="preserve"><tspan id="tspan34735" x="83.006317" y="227.88412" fill="#eba03b" stroke-width=".086313" text-align="center" text-anchor="middle">FAULT</tspan></text>
  <path id="path1443" x="77.127907" y="223.12306" width="11.86979" height="11.86979" d="m77.657 223.12h10.811a.52917.52917 45 01.52917.52917v10.811a.52917.52917 135 01-.52917.52916h-10.811a.52917.52917 45 01-.52917-.52916v-10.811a.52917.52917 135 01.52917-.52917z" fill="none" stroke="#999" stroke-linecap="square" stroke-width=".52917" style="paint-order:markers stroke fill"/>
  <path id="GreenHydElecPumpOffSwitchPush" x="77.127907" y="223.12306" width="11.86979" height="11.86979" d="m77.657 223.12h10.811a.52917.52917 45 01.52917.52917v10.811a.52917.52917 135 01-.52917.52916h-10.811a.52917.52917 45 01-.52917-.52916v-10.811a.52917.52917 135 01.52917-.52917z" fill="none" stroke="#1a1a1a" stroke-linecap="square" stroke-width=".52917" style="paint-order:markers stroke fill"/>
 </g>
 <g id="GreenHydElecPumpOnSwitchButton" transform="matrix(.98774 0 0 .98774 -80.536 -211.84)">
  <path id="path45219" x="93.797478" y="223.12306" width="11.86979" height="11.86979" d="m94.327 223.12h10.811a.52917.52917 45 01.52917.52917v10.811a.52917.52917 135 01-.52917.52916h-10.811a.52917.52917 45 01-.52917-.52916v-10.811a.52917.52917 135 01.52917-.52917z" fill="#333" stroke="#666" stroke-linecap="square" stroke-width=".52917" style="paint-order:markers stroke fill"/>
  <g id="GreenHydElecPumpOnSwitchStatus">
   <path id="path45221" x="95.637863" y="229.75716" width="8.2260761" height="3.486815" d="m95.902 229.76h7.6969a.26458.26458 45 01.26458.26458v2.9576a.26458.26458 135 01-.26458.26458h-7.6969a.26458.26458 45 01-.26458-.26458v-2.9576a.26458.26458 135 01.26458-.26458z" fill="none" stroke="#94d4f3" stroke-linecap="square" stroke-width=".26458" style="paint-order:markers stroke fill"/>
   <text id="text45225" x="99.675888" y="232.75563" fill="#94d4f3" font-family="sans-serif" font-size="3.4525px" stroke-width=".086313" style="-moz-user-select:none;-ms-user-select:none;-webkit-user-select:none;line-height:1.25" xml:space="preserve"><tspan id="tspan45223" x="99.675888" y="232.75563" fill="#94d4f3" stroke-width=".086313" text-align="center" text-anchor="middle">ON</tspan></text>
  </g>
  <path id="path1437" x="93.797478" y="223.12306" width="11.86979" height="11.86979" d="m94.327 223.12h10.811a.52917.52917 45 01.52917.52917v10.811a.52917.52917 135 01-.52917.52916h-10.811a.52917.52917 45 01-.52917-.52916v-10.811a.52917.52917 135 01.52917-.52917z" fill="none" stroke="#999" stroke-linecap="square" stroke-width=".52917" style="paint-order:markers stroke fill"/>
  <path id="GreenHydElecPumpOnSwitchPush" x="93.797478" y="223.12306" width="11.86979" height="11.86979" d="m94.327 223.12h10.811a.52917.52917 45 01.52917.52917v10.811a.52917.52917 135 01-.52917.52916h-10.811a.52917.52917 45 01-.52917-.52916v-10.811a.52917.52917 135 01.52917-.52917z" fill="none" stroke="#1a1a1a" stroke-linecap="square" stroke-width=".52917" style="paint-order:markers stroke fill"/>
  <g id="GreenHydElecPumpOnSwitchFault" fill="#666">
   <circle id="path48103" cx="96.765" cy="226.09" r=".90235" style="paint-order:markers stroke fill"/>
   <circle id="circle50289" cx="102.7" cy="226.09" r=".90235" style="paint-order:markers stroke fill"/>
  </g>
 </g>
 <g id="RatSwitch" transform="matrix(1 0 0 1 -60.337 -241.18)">
  <path id="rect56240" x="242.22885" y="252.44756" width="13.988215" height="20.982325" d="m242.76 252.45h12.93a.52917.52917 45 01.52917.52916v19.924a.52917.52917 135 01-.52917.52917h-12.93a.52917.52917 45 01-.52917-.52917v-19.924a.52917.52917 135 01.52917-.52916z" fill="#333" stroke="#222" stroke-linecap="square" stroke-width=".52917" style="paint-order:markers stroke fill"/>
  <path id="rect59822" x="243.30168" y="254.11577" width="11.842547" height="2.8579102" d="m244.36 254.12h9.7259a1.0583 1.0583 45 011.0583 1.0583v.74125a1.0583 1.0583 135 01-1.0583 1.0583h-9.7259a1.0583 1.0583 45 01-1.0583-1.0583v-.74125a1.0583 1.0583 135 011.0583-1.0583z" fill="#4d4d4d" stroke="#3c3c3c" stroke-linecap="square" stroke-width=".26458" style="paint-order:markers stroke fill"/>
  <g id="RatSwitchButton" transform="translate(-19.698)">
   <circle id="path61559" cx="268.92" cy="267.33" r="3.1577" fill="#666" style="paint-order:markers stroke fill"/>
   <circle id="RatSwitchPush" cx="268.92" cy="267.33" r="3.1577" fill="none" stroke="#181818" stroke-linecap="square" stroke-width=".52917" style="paint-order:markers stroke fill"/>
  </g>
  <path id="RatSwitchCoverClosed" d="m245.8 253.15a.4033.4033 0 00-.4036.40308v3.9817a.57568.57568 0 01-.57567.57567h-.63924a1.3341 1.3341 0 00-1.3343 1.3343v11.99a1.3317 1.3317 0 001.3317 1.3317h1.4966a.3597.3597 0 01.35966.35967v1.1204a.3597.3597 0 00.35967.35966h5.6622a.3597.3597 0 00.35967-.35966v-1.1204a.3597.3597 0 01.35966-.35967h1.4966a1.3317 1.3317 0 001.3317-1.3317v-11.99a1.3341 1.3341 0 00-1.3343-1.3343h-.63924a.57568.57568 0 01-.57567-.57567v-3.9817a.4033.4033 0 00-.40308-.40308h-3.4262z" fill="#ba2424" stroke="#7e1919" stroke-width=".26458px"/>
  <path id="RatSwitchCoverOpen" d="m245.8 253.15a.4033.17536 0 00-.4036.17526v1.7312a.57568.25031 0 01-.57567.2503h-.63924a1.3341.58008 0 00-1.3343.58015v5.2133a1.3317.57903 0 001.3317.57902h1.4966a.3597.1564 0 01.35966.15638v.48713a.3597.1564 0 00.35967.15638h5.6622a.3597.1564 0 00.35967-.15638v-.48713a.3597.1564 0 01.35966-.15638h1.4966a1.3317.57903 0 001.3317-.57902v-5.2133a1.3341.58008 0 00-1.3343-.58015h-.63924a.57568.25031 0 01-.57567-.2503v-1.7312a.4033.17536 0 00-.40308-.17526h-3.4262z" fill="#ba2424" stroke="#7e1919" stroke-width=".17446px"/>
 </g>
 <g id="HydDisplay" transform="matrix(1 0 0 1 -170.25 -305.99)">
  <rect id="rect82301" x="207.22" y="365.96" width="132.88" height="128.65" ry="0" style="paint-order:markers stroke fill"/>
  <g font-family="sans-serif">
   <text id="GreenHydPressureDisplay" x="230.4115" y="396.42419" fill="#00fd3d" font-size="6.0268px" stroke-width=".15067" style="-moz-user-select:none;-ms-user-select:none;-webkit-user-select:none;line-height:1.25" xml:space="preserve"><tspan id="tspan82303" x="230.4115" y="396.42419" fill="#00fd3d" font-family="Arial" font-size="6.0268px" stroke-width=".15067" text-align="center" text-anchor="middle" style="font-variant-caps:normal;font-variant-east-asian:normal;font-variant-ligatures:normal;font-variant-numeric:normal">3000</tspan></text>
   <text id="text84743" transform="scale(.88874 1.1252)" x="259.23724" y="345.48444" fill="#fcfdfd" font-size="5.3562px" stroke-width=".13391" style="line-height:1.25" xml:space="preserve"><tspan id="tspan84741" x="259.23724" y="345.48444" fill="#fcfdfd" font-family="Arial" font-size="5.3562px" stroke-width=".13391" text-align="center" text-anchor="middle" style="font-variant-caps:normal;font-variant-east-asian:normal;font-variant-ligatures:normal;font-variant-numeric:normal">GREEN</tspan></text>
   <text id="BlueHydPressureDisplay" x="272.71515" y="396.42419" fill="#00fd3d" font-size="6.0268px" stroke-width=".15067" style="-moz-user-select:none;-ms-user-select:none;-webkit-user-select:none;line-height:1.25" xml:space="preserve"><tspan id="tspan86125" x="272.71515" y="396.42419" fill="#00fd3d" font-family="Arial" font-size="6.0268px" stroke-width=".15067" text-align="center" text-anchor="middle" style="font-variant-caps:normal;font-variant-east-asian:normal;font-variant-ligatures:normal;font-variant-numeric:normal">3000</tspan></text>
   <text id="text86131" transform="scale(.88874 1.1252)" x="306.83707" y="345.48444" fill="#fcfdfd" font-size="5.3562px" stroke-width=".13391" style="line-height:1.25" xml:space="preserve"><tspan id="tspan86129" x="306.83707" y="345.48444" fill="#fcfdfd" font-family="Arial" font-size="5.3562px" stroke-width=".13391" text-align="center" text-anchor="middle" style="font-variant-caps:normal;font-variant-east-asian:normal;font-variant-ligatures:normal;font-variant-numeric:normal">BLUE</tspan></text>
   <text id="YellowHydPressureDisplay" x="315.1106" y="396.42419" fill="#00fd3d" font-size="6.0268px" stroke-width=".15067" style="-moz-user-select:none;-ms-user-select:none;-webkit-user-select:none;line-height:1.25" xml:space="preserve"><tspan id="tspan86133" x="315.1106" y="396.42419" fill="#00fd3d" font-family="Arial" font-size="6.0268px" stroke-width=".15067" text-align="center" text-anchor="middle" style="font-variant-caps:normal;font-variant-east-asian:normal;font-variant-ligatures:normal;font-variant-numeric:normal">3000</tspan></text>
   <text id="text86139" transform="scale(.88874 1.1252)" x="354.54016" y="345.48444" fill="#fcfdfd" font-size="5.3562px" stroke-width=".13391" style="line-height:1.25" xml:space="preserve"><tspan id="tspan86137" x="354.54016" y="345.48444" fill="#fcfdfd" font-family="Arial" font-size="5.3562px" stroke-width=".13391" text-align="center" text-anchor="middle" style="font-variant-caps:normal;font-variant-east-asian:normal;font-variant-ligatures:normal;font-variant-numeric:normal">YELLOW</tspan></text>
  </g>
 </g>
 <g id="GreenHydEng1PumpSwitchButton" transform="matrix(.98773 0 0 .98773 -46.652 -190.62)">
  <path id="path7796" x="77.127907" y="223.12306" width="11.86979" height="11.86979" d="m77.657 223.12h10.811a.52917.52917 45 01.52917.52917v10.811a.52917.52917 135 01-.52917.52916h-10.811a.52917.52917 45 01-.52917-.52916v-10.811a.52917.52917 135 01.52917-.52917z" fill="#333" stroke="#666" stroke-linecap="square" stroke-width=".52917" style="paint-order:markers stroke fill"/>
  <g id="GreenHydEng1PumpSwitchStatus" transform="translate(18.291 -27.745)">
   <path id="path7798" x="60.676998" y="257.50235" width="8.2260761" height="3.486815" d="m60.942 257.5h7.6969a.26458.26458 45 01.26458.26458v2.9576a.26458.26458 135 01-.26458.26458h-7.6969a.26458.26458 45 01-.26458-.26458v-2.9576a.26458.26458 135 01.26458-.26458z" fill="none" stroke="#b5b098" stroke-linecap="square" stroke-width=".26458" style="paint-order:markers stroke fill"/>
   <text id="text7802" x="64.715019" y="260.50082" fill="#b5b098" font-family="sans-serif" font-size="3.4525px" stroke-width=".086313" style="-moz-user-select:none;-ms-user-select:none;-webkit-user-select:none;line-height:1.25" xml:space="preserve"><tspan id="tspan7800" x="64.715019" y="260.50082" fill="#b5b098" stroke-width=".086313" text-align="center" text-anchor="middle">OFF</tspan></text>
  </g>
  <text id="GreenHydEng1PumpSwitchFault" x="83.006317" y="227.88412" fill="#eba03b" font-family="sans-serif" font-size="3.4525px" stroke-width=".086313" style="-moz-user-select:none;-ms-user-select:none;-webkit-user-select:none;line-height:1.25" xml:space="preserve"><tspan id="tspan7806" x="83.006317" y="227.88412" fill="#eba03b" stroke-width=".086313" text-align="center" text-anchor="middle">FAULT</tspan></text>
  <path id="path7810" x="77.127907" y="223.12306" width="11.86979" height="11.86979" d="m77.657 223.12h10.811a.52917.52917 45 01.52917.52917v10.811a.52917.52917 135 01-.52917.52916h-10.811a.52917.52917 45 01-.52917-.52916v-10.811a.52917.52917 135 01.52917-.52917z" fill="none" stroke="#999" stroke-linecap="square" stroke-width=".52917" style="paint-order:markers stroke fill"/>
  <path id="GreenHydEng1PumpSwitchPush" x="77.127907" y="223.12306" width="11.86979" height="11.86979" d="m77.657 223.12h10.811a.52917.52917 45 01.52917.52917v10.811a.52917.52917 135 01-.52917.52916h-10.811a.52917.52917 45 01-.52917-.52916v-10.811a.52917.52917 135 01.52917-.52917z" fill="none" stroke="#1a1a1a" stroke-linecap="square" stroke-width=".52917" style="paint-order:markers stroke fill"/>
 </g>
 <g id="BlueHydElecPumpOffSwitchButton" transform="matrix(.98773 0 0 .98773 -13.824 -190.62)">
  <path id="path11723" x="77.127907" y="223.12306" width="11.86979" height="11.86979" d="m77.657 223.12h10.811a.52917.52917 45 01.52917.52917v10.811a.52917.52917 135 01-.52917.52916h-10.811a.52917.52917 45 01-.52917-.52916v-10.811a.52917.52917 135 01.52917-.52917z" fill="#333" stroke="#666" stroke-linecap="square" stroke-width=".52917" style="paint-order:markers stroke fill"/>
  <g id="BlueHydElecPumpOffSwitchStatus" transform="translate(18.291 -27.745)">
   <path id="path11725" x="60.676998" y="257.50235" width="8.2260761" height="3.486815" d="m60.942 257.5h7.6969a.26458.26458 45 01.26458.26458v2.9576a.26458.26458 135 01-.26458.26458h-7.6969a.26458.26458 45 01-.26458-.26458v-2.9576a.26458.26458 135 01.26458-.26458z" fill="none" stroke="#b5b098" stroke-linecap="square" stroke-width=".26458" style="paint-order:markers stroke fill"/>
   <text id="text11729" x="64.715019" y="260.50082" fill="#b5b098" font-family="sans-serif" font-size="3.4525px" stroke-width=".086313" style="-moz-user-select:none;-ms-user-select:none;-webkit-user-select:none;line-height:1.25" xml:space="preserve"><tspan id="tspan11727" x="64.715019" y="260.50082" fill="#b5b098" stroke-width=".086313" text-align="center" text-anchor="middle">OFF</tspan></text>
  </g>
  <text id="BlueHydElecPumpOffSwitchFault" x="83.006317" y="227.88412" fill="#eba03b" font-family="sans-serif" font-size="3.4525px" stroke-width=".086313" style="-moz-user-select:none;-ms-user-select:none;-webkit-user-select:none;line-height:1.25" xml:space="preserve"><tspan id="tspan11733" x="83.006317" y="227.88412" fill="#eba03b" stroke-width=".086313" text-align="center" text-anchor="middle">FAULT</tspan></text>
  <path id="path11737" x="77.127907" y="223.12306" width="11.86979" height="11.86979" d="m77.657 223.12h10.811a.52917.52917 45 01.52917.52917v10.811a.52917.52917 135 01-.52917.52916h-10.811a.52917.52917 45 01-.52917-.52916v-10.811a.52917.52917 135 01.52917-.52917z" fill="none" stroke="#999" stroke-linecap="square" stroke-width=".52917" style="paint-order:markers stroke fill"/>
  <path id="BlueHydElecPumpOffSwitchPush" x="77.127907" y="223.12306" width="11.86979" height="11.86979" d="m77.657 223.12h10.811a.52917.52917 45 01.52917.52917v10.811a.52917.52917 135 01-.52917.52916h-10.811a.52917.52917 45 01-.52917-.52916v-10.811a.52917.52917 135 01.52917-.52917z" fill="none" stroke="#1a1a1a" stroke-linecap="square" stroke-width=".52917" style="paint-order:markers stroke fill"/>
 </g>
 <g id="BlueHydEng1PumpSwitchButton" transform="matrix(.98773 0 0 .98773 3.5778 -190.62)">
  <path id="path13939" x="77.127907" y="223.12306" width="11.86979" height="11.86979" d="m77.657 223.12h10.811a.52917.52917 45 01.52917.52917v10.811a.52917.52917 135 01-.52917.52916h-10.811a.52917.52917 45 01-.52917-.52916v-10.811a.52917.52917 135 01.52917-.52917z" fill="#333" stroke="#666" stroke-linecap="square" stroke-width=".52917" style="paint-order:markers stroke fill"/>
  <g id="BlueHydEng1PumpSwitchStatus" transform="translate(18.291 -27.745)">
   <path id="path13941" x="60.676998" y="257.50235" width="8.2260761" height="3.486815" d="m60.942 257.5h7.6969a.26458.26458 45 01.26458.26458v2.9576a.26458.26458 135 01-.26458.26458h-7.6969a.26458.26458 45 01-.26458-.26458v-2.9576a.26458.26458 135 01.26458-.26458z" fill="none" stroke="#b5b098" stroke-linecap="square" stroke-width=".26458" style="paint-order:markers stroke fill"/>
   <text id="text13945" x="64.715019" y="260.50082" fill="#b5b098" font-family="sans-serif" font-size="3.4525px" stroke-width=".086313" style="-moz-user-select:none;-ms-user-select:none;-webkit-user-select:none;line-height:1.25" xml:space="preserve"><tspan id="tspan13943" x="64.715019" y="260.50082" fill="#b5b098" stroke-width=".086313" text-align="center" text-anchor="middle">OFF</tspan></text>
  </g>
  <text id="BlueHydEng1PumpSwitchFault" x="83.006317" y="227.88412" fill="#eba03b" font-family="sans-serif" font-size="3.4525px" stroke-width=".086313" style="-moz-user-select:none;-ms-user-select:none;-webkit-user-select:none;line-height:1.25" xml:space="preserve"><tspan id="tspan13949" x="83.006317" y="227.88412" fill="#eba03b" stroke-width=".086313" text-align="center" text-anchor="middle">FAULT</tspan></text>
  <path id="path13953" x="77.127907" y="223.12306" width="11.86979" height="11.86979" d="m77.657 223.12h10.811a.52917.52917 45 01.52917.52917v10.811a.52917.52917 135 01-.52917.52916h-10.811a.52917.52917 45 01-.52917-.52916v-10.811a.52917.52917 135 01.52917-.52917z" fill="none" stroke="#999" stroke-linecap="square" stroke-width=".52917" style="paint-order:markers stroke fill"/>
  <path id="BlueHydEng1PumpSwitchPush" x="77.127907" y="223.12306" width="11.86979" height="11.86979" d="m77.657 223.12h10.811a.52917.52917 45 01.52917.52917v10.811a.52917.52917 135 01-.52917.52916h-10.811a.52917.52917 45 01-.52917-.52916v-10.811a.52917.52917 135 01.52917-.52917z" fill="none" stroke="#1a1a1a" stroke-linecap="square" stroke-width=".52917" style="paint-order:markers stroke fill"/>
 </g>
 <g id="YellowHydElecPumpOffSwitchButton" transform="matrix(.98773 0 0 .98773 35.712 -190.62)">
  <path id="path17474" x="77.127907" y="223.12306" width="11.86979" height="11.86979" d="m77.657 223.12h10.811a.52917.52917 45 01.52917.52917v10.811a.52917.52917 135 01-.52917.52916h-10.811a.52917.52917 45 01-.52917-.52916v-10.811a.52917.52917 135 01.52917-.52917z" fill="#333" stroke="#666" stroke-linecap="square" stroke-width=".52917" style="paint-order:markers stroke fill"/>
  <g id="YellowHydElecPumpOffSwitchStatus" transform="translate(18.291 -27.745)">
   <path id="path17476" x="60.676998" y="257.50235" width="8.2260761" height="3.486815" d="m60.942 257.5h7.6969a.26458.26458 45 01.26458.26458v2.9576a.26458.26458 135 01-.26458.26458h-7.6969a.26458.26458 45 01-.26458-.26458v-2.9576a.26458.26458 135 01.26458-.26458z" fill="none" stroke="#b5b098" stroke-linecap="square" stroke-width=".26458" style="paint-order:markers stroke fill"/>
   <text id="text17480" x="64.715019" y="260.50082" fill="#b5b098" font-family="sans-serif" font-size="3.4525px" stroke-width=".086313" style="-moz-user-select:none;-ms-user-select:none;-webkit-user-select:none;line-height:1.25" xml:space="preserve"><tspan id="tspan17478" x="64.715019" y="260.50082" fill="#b5b098" stroke-width=".086313" text-align="center" text-anchor="middle">OFF</tspan></text>
  </g>
  <text id="YellowHydElecPumpOffSwitchFault" x="83.006317" y="227.88412" fill="#eba03b" font-family="sans-serif" font-size="3.4525px" stroke-width=".086313" style="-moz-user-select:none;-ms-user-select:none;-webkit-user-select:none;line-height:1.25" xml:space="preserve"><tspan id="tspan17484" x="83.006317" y="227.88412" fill="#eba03b" stroke-width=".086313" text-align="center" text-anchor="middle">FAULT</tspan></text>
  <path id="path17488" x="77.127907" y="223.12306" width="11.86979" height="11.86979" d="m77.657 223.12h10.811a.52917.52917 45 01.52917.52917v10.811a.52917.52917 135 01-.52917.52916h-10.811a.52917.52917 45 01-.52917-.52916v-10.811a.52917.52917 135 01.52917-.52917z" fill="none" stroke="#999" stroke-linecap="square" stroke-width=".52917" style="paint-order:markers stroke fill"/>
  <path id="YellowHydElecPumpOffSwitchPush" x="77.127907" y="223.12306" width="11.86979" height="11.86979" d="m77.657 223.12h10.811a.52917.52917 45 01.52917.52917v10.811a.52917.52917 135 01-.52917.52916h-10.811a.52917.52917 45 01-.52917-.52916v-10.811a.52917.52917 135 01.52917-.52917z" fill="none" stroke="#1a1a1a" stroke-linecap="square" stroke-width=".52917" style="paint-order:markers stroke fill"/>
 </g>
 <g id="YellowHydEng2PumpSwitchButton" transform="matrix(.98773 0 0 .98773 53.032 -190.62)">
  <path id="path18236" x="77.127907" y="223.12306" width="11.86979" height="11.86979" d="m77.657 223.12h10.811a.52917.52917 45 01.52917.52917v10.811a.52917.52917 135 01-.52917.52916h-10.811a.52917.52917 45 01-.52917-.52916v-10.811a.52917.52917 135 01.52917-.52917z" fill="#333" stroke="#666" stroke-linecap="square" stroke-width=".52917" style="paint-order:markers stroke fill"/>
  <g id="YellowHydEng2PumpSwitchStatus" transform="translate(18.291 -27.745)">
   <path id="path18238" x="60.676998" y="257.50235" width="8.2260761" height="3.486815" d="m60.942 257.5h7.6969a.26458.26458 45 01.26458.26458v2.9576a.26458.26458 135 01-.26458.26458h-7.6969a.26458.26458 45 01-.26458-.26458v-2.9576a.26458.26458 135 01.26458-.26458z" fill="none" stroke="#b5b098" stroke-linecap="square" stroke-width=".26458" style="paint-order:markers stroke fill"/>
   <text id="text18242" x="64.715019" y="260.50082" fill="#b5b098" font-family="sans-serif" font-size="3.4525px" stroke-width=".086313" style="-moz-user-select:none;-ms-user-select:none;-webkit-user-select:none;line-height:1.25" xml:space="preserve"><tspan id="tspan18240" x="64.715019" y="260.50082" fill="#b5b098" stroke-width=".086313" text-align="center" text-anchor="middle">OFF</tspan></text>
  </g>
  <text id="YellowHydEng2PumpSwitchFault" x="83.006317" y="227.88412" fill="#eba03b" font-family="sans-serif" font-size="3.4525px" stroke-width=".086313" style="-moz-user-select:none;-ms-user-select:none;-webkit-user-select:none;line-height:1.25" xml:space="preserve"><tspan id="tspan18246" x="83.006317" y="227.88412" fill="#eba03b" stroke-width=".086313" text-align="center" text-anchor="middle">FAULT</tspan></text>
  <path id="path18250" x="77.127907" y="223.12306" width="11.86979" height="11.86979" d="m77.657 223.12h10.811a.52917.52917 45 01.52917.52917v10.811a.52917.52917 135 01-.52917.52916h-10.811a.52917.52917 45 01-.52917-.52916v-10.811a.52917.52917 135 01.52917-.52917z" fill="none" stroke="#999" stroke-linecap="square" stroke-width=".52917" style="paint-order:markers stroke fill"/>
  <path id="YellowHydEng2PumpSwitchPush" x="77.127907" y="223.12306" width="11.86979" height="11.86979" d="m77.657 223.12h10.811a.52917.52917 45 01.52917.52917v10.811a.52917.52917 135 01-.52917.52916h-10.811a.52917.52917 45 01-.52917-.52916v-10.811a.52917.52917 135 01.52917-.52917z" fill="none" stroke="#1a1a1a" stroke-linecap="square" stroke-width=".52917" style="paint-order:markers stroke fill"/>
 </g>
 <g id="GreenHydEng2PumpSwitchButton" transform="matrix(.98773 0 0 .98773 88.179 -190.62)">
  <path id="path19868" x="77.127907" y="223.12306" width="11.86979" height="11.86979" d="m77.657 223.12h10.811a.52917.52917 45 01.52917.52917v10.811a.52917.52917 135 01-.52917.52916h-10.811a.52917.52917 45 01-.52917-.52916v-10.811a.52917.52917 135 01.52917-.52917z" fill="#333" stroke="#666" stroke-linecap="square" stroke-width=".52917" style="paint-order:markers stroke fill"/>
  <g id="GreenHydEng2PumpSwitchStatus" transform="translate(18.291 -27.745)">
   <path id="path19870" x="60.676998" y="257.50235" width="8.2260761" height="3.486815" d="m60.942 257.5h7.6969a.26458.26458 45 01.26458.26458v2.9576a.26458.26458 135 01-.26458.26458h-7.6969a.26458.26458 45 01-.26458-.26458v-2.9576a.26458.26458 135 01.26458-.26458z" fill="none" stroke="#b5b098" stroke-linecap="square" stroke-width=".26458" style="paint-order:markers stroke fill"/>
   <text id="text19874" x="64.715019" y="260.50082" fill="#b5b098" font-family="sans-serif" font-size="3.4525px" stroke-width=".086313" style="-moz-user-select:none;-ms-user-select:none;-webkit-user-select:none;line-height:1.25" xml:space="preserve"><tspan id="tspan19872" x="64.715019" y="260.50082" fill="#b5b098" stroke-width=".086313" text-align="center" text-anchor="middle">OFF</tspan></text>
  </g>
  <text id="GreenHydEng2PumpSwitchFault" x="83.006317" y="227.88412" fill="#eba03b" font-family="sans-serif" font-size="3.4525px" stroke-width=".086313" style="-moz-user-select:none;-ms-user-select:none;-webkit-user-select:none;line-height:1.25" xml:space="preserve"><tspan id="tspan19878" x="83.006317" y="227.88412" fill="#eba03b" stroke-width=".086313" text-align="center" text-anchor="middle">FAULT</tspan></text>
  <path id="path19882" x="77.127907" y="223.12306" width="11.86979" height="11.86979" d="m77.657 223.12h10.811a.52917.52917 45 01.52917.52917v10.811a.52917.52917 135 01-.52917.52916h-10.811a.52917.52917 45 01-.52917-.52916v-10.811a.52917.52917 135 01.52917-.52917z" fill="none" stroke="#999" stroke-linecap="square" stroke-width=".52917" style="paint-order:markers stroke fill"/>
  <path id="GreenHydEng2PumpSwitchPush" x="77.127907" y="223.12306" width="11.86979" height="11.86979" d="m77.657 223.12h10.811a.52917.52917 45 01.52917.52917v10.811a.52917.52917 135 01-.52917.52916h-10.811a.52917.52917 45 01-.52917-.52916v-10.811a.52917.52917 135 01.52917-.52917z" fill="none" stroke="#1a1a1a" stroke-linecap="square" stroke-width=".52917" style="paint-order:markers stroke fill"/>
 </g>
 <g id="BlueHydElecPumpOnSwitchButton" transform="matrix(.98774 0 0 .98774 -30.29 -211.84)">
  <path id="path21151" x="93.797478" y="223.12306" width="11.86979" height="11.86979" d="m94.327 223.12h10.811a.52917.52917 45 01.52917.52917v10.811a.52917.52917 135 01-.52917.52916h-10.811a.52917.52917 45 01-.52917-.52916v-10.811a.52917.52917 135 01.52917-.52917z" fill="#333" stroke="#666" stroke-linecap="square" stroke-width=".52917" style="paint-order:markers stroke fill"/>
  <g id="BlueHydElecPumpOnSwitchStatus">
   <path id="path21153" x="95.637863" y="229.75716" width="8.2260761" height="3.486815" d="m95.902 229.76h7.6969a.26458.26458 45 01.26458.26458v2.9576a.26458.26458 135 01-.26458.26458h-7.6969a.26458.26458 45 01-.26458-.26458v-2.9576a.26458.26458 135 01.26458-.26458z" fill="none" stroke="#94d4f3" stroke-linecap="square" stroke-width=".26458" style="paint-order:markers stroke fill"/>
   <text id="text21157" x="99.675888" y="232.75563" fill="#94d4f3" font-family="sans-serif" font-size="3.4525px" stroke-width=".086313" style="-moz-user-select:none;-ms-user-select:none;-webkit-user-select:none;line-height:1.25" xml:space="preserve"><tspan id="tspan21155" x="99.675888" y="232.75563" fill="#94d4f3" stroke-width=".086313" text-align="center" text-anchor="middle">ON</tspan></text>
  </g>
  <path id="path21161" x="93.797478" y="223.12306" width="11.86979" height="11.86979" d="m94.327 223.12h10.811a.52917.52917 45 01.52917.52917v10.811a.52917.52917 135 01-.52917.52916h-10.811a.52917.52917 45 01-.52917-.52916v-10.811a.52917.52917 135 01.52917-.52917z" fill="none" stroke="#999" stroke-linecap="square" stroke-width=".52917" style="paint-order:markers stroke fill"/>
  <path id="BlueHydElecPumpOnSwitchPush" x="93.797478" y="223.12306" width="11.86979" height="11.86979" d="m94.327 223.12h10.811a.52917.52917 45 01.52917.52917v10.811a.52917.52917 135 01-.52917.52916h-10.811a.52917.52917 45 01-.52917-.52916v-10.811a.52917.52917 135 01.52917-.52917z" fill="none" stroke="#1a1a1a" stroke-linecap="square" stroke-width=".52917" style="paint-order:markers stroke fill"/>
  <g id="BlueHydElecPumpOnSwitchFault" fill="#666">
   <circle id="circle21165" cx="96.765" cy="226.09" r=".90235" style="paint-order:markers stroke fill"/>
   <circle id="circle21167" cx="102.7" cy="226.09" r=".90235" style="paint-order:markers stroke fill"/>
  </g>
 </g>
 <g id="YellowHydElecPumpOnSwitchButton" transform="matrix(.98774 0 0 .98774 19.246 -211.84)">
  <path id="path24097" x="93.797478" y="223.12306" width="11.86979" height="11.86979" d="m94.327 223.12h10.811a.52917.52917 45 01.52917.52917v10.811a.52917.52917 135 01-.52917.52916h-10.811a.52917.52917 45 01-.52917-.52916v-10.811a.52917.52917 135 01.52917-.52917z" fill="#333" stroke="#666" stroke-linecap="square" stroke-width=".52917" style="paint-order:markers stroke fill"/>
  <g id="YellowHydElecPumpOnSwitchStatus">
   <path id="path24099" x="95.637863" y="229.75716" width="8.2260761" height="3.486815" d="m95.902 229.76h7.6969a.26458.26458 45 01.26458.26458v2.9576a.26458.26458 135 01-.26458.26458h-7.6969a.26458.26458 45 01-.26458-.26458v-2.9576a.26458.26458 135 01.26458-.26458z" fill="none" stroke="#94d4f3" stroke-linecap="square" stroke-width=".26458" style="paint-order:markers stroke fill"/>
   <text id="text24103" x="99.675888" y="232.75563" fill="#94d4f3" font-family="sans-serif" font-size="3.4525px" stroke-width=".086313" style="-moz-user-select:none;-ms-user-select:none;-webkit-user-select:none;line-height:1.25" xml:space="preserve"><tspan id="tspan24101" x="99.675888" y="232.75563" fill="#94d4f3" stroke-width=".086313" text-align="center" text-anchor="middle">ON</tspan></text>
  </g>
  <path id="path24107" x="93.797478" y="223.12306" width="11.86979" height="11.86979" d="m94.327 223.12h10.811a.52917.52917 45 01.52917.52917v10.811a.52917.52917 135 01-.52917.52916h-10.811a.52917.52917 45 01-.52917-.52916v-10.811a.52917.52917 135 01.52917-.52917z" fill="none" stroke="#999" stroke-linecap="square" stroke-width=".52917" style="paint-order:markers stroke fill"/>
  <path id="YellowHydElecPumpOnSwitchPush" x="93.797478" y="223.12306" width="11.86979" height="11.86979" d="m94.327 223.12h10.811a.52917.52917 45 01.52917.52917v10.811a.52917.52917 135 01-.52917.52916h-10.811a.52917.52917 45 01-.52917-.52916v-10.811a.52917.52917 135 01.52917-.52917z" fill="none" stroke="#1a1a1a" stroke-linecap="square" stroke-width=".52917" style="paint-order:markers stroke fill"/>
  <g id="YellowHydElecPumpOnSwitchFault" fill="#666">
   <circle id="circle24111" cx="96.765" cy="226.09" r=".90235" style="paint-order:markers stroke fill"/>
   <circle id="circle24113" cx="102.7" cy="226.09" r=".90235" style="paint-order:markers stroke fill"/>
  </g>
 </g>
</svg>
